<?xml version="1.0" standalone="no"?>
<!DOCTYPE svg PUBLIC "-//W3C//DTD SVG 20010904//EN"
 "http://www.w3.org/TR/2001/REC-SVG-20010904/DTD/svg10.dtd">
<svg version="1.0" xmlns="http://www.w3.org/2000/svg"
 width="286.000000pt" height="286.000000pt" viewBox="0 0 286.000000 286.000000"
 preserveAspectRatio="xMidYMid meet">
<metadata>
Created by potrace 1.14, written by Peter Selinger 2001-2017
</metadata>
<g transform="translate(0.000000,286.000000) scale(0.100000,-0.100000)"
fill="#000000" stroke="none">
<path d="M1876 2721 c5 -5 83 -33 174 -64 211 -71 387 -134 425 -152 41 -20
324 -135 332 -135 3 0 -1 8 -8 17 -20 24 -136 75 -269 118 -63 20 -119 40
-125 45 -18 13 -103 38 -110 32 -3 -4 -9 -1 -13 5 -10 16 -224 98 -319 122
-91 23 -101 25 -87 12z"/>
<path d="M847 2675 c-44 -13 -93 -30 -110 -39 -18 -9 -102 -44 -187 -77 -85
-33 -161 -63 -169 -66 -9 -4 -12 -2 -7 5 4 7 3 12 -2 12 -6 0 -12 -6 -15 -13
-2 -6 -22 -18 -43 -26 -61 -22 -222 -100 -229 -111 -11 -17 10 -11 116 36 110
48 581 237 687 274 60 22 76 31 50 29 -7 -1 -48 -11 -91 -24z"/>
<path d="M2162 2668 c2 -6 10 -14 16 -16 7 -2 10 2 6 12 -7 18 -28 22 -22 4z"/>
<path d="M700 2654 c0 -8 5 -12 10 -9 6 3 10 10 10 16 0 5 -4 9 -10 9 -5 0
-10 -7 -10 -16z"/>
<path d="M1756 2638 c-9 -12 -16 -30 -16 -40 0 -12 -8 -18 -21 -18 -15 0 -19
-4 -15 -16 5 -13 0 -14 -27 -9 -17 4 -39 14 -47 23 -8 9 -25 16 -37 14 -14 -2
-23 2 -23 10 0 24 -113 57 -126 37 -4 -7 -33 -10 -73 -8 -47 3 -80 -2 -116
-15 -50 -20 -97 -46 -81 -46 5 0 3 -7 -4 -15 -7 -8 -19 -15 -27 -15 -13 0 -13
3 -3 15 20 24 -36 10 -205 -52 -82 -30 -215 -79 -295 -108 -80 -29 -203 -76
-275 -105 -71 -28 -145 -52 -164 -53 -36 -2 -54 17 -24 26 37 10 219 78 248
91 186 88 420 185 502 209 83 25 153 59 153 74 0 10 -6 13 -15 9 -9 -3 -68
-22 -133 -41 -64 -20 -130 -42 -147 -50 -26 -13 -86 -36 -368 -142 -37 -14
-67 -30 -67 -34 0 -5 -7 -5 -17 -2 -12 5 -14 3 -8 -7 6 -10 4 -12 -8 -7 -10 3
-17 3 -17 -2 0 -9 -90 -47 -103 -43 -5 1 -6 -2 -3 -7 6 -9 -53 -35 -62 -27 -2
3 7 8 22 12 21 5 23 8 12 20 -29 29 -40 21 -42 -31 -2 -60 17 -89 56 -81 24 4
24 4 -2 -7 -16 -6 -28 -14 -28 -19 0 -4 -7 -8 -15 -8 -12 0 -12 -5 -4 -23 8
-18 17 -23 34 -20 19 4 25 -2 41 -44 9 -26 19 -49 20 -51 1 -2 31 11 65 29 56
28 268 113 562 225 48 19 95 34 104 34 16 0 16 -2 2 -15 -16 -16 -93 -50 -249
-110 -47 -18 -147 -58 -223 -89 -76 -31 -143 -54 -148 -50 -5 3 -9 0 -9 -6 0
-6 -8 -13 -17 -17 -10 -3 -30 -14 -44 -24 -14 -10 -29 -16 -31 -13 -8 7 -19
-57 -12 -68 4 -5 13 -3 22 5 20 17 126 71 162 82 14 4 132 50 263 101 130 52
239 94 242 94 3 0 1 -8 -4 -18 -11 -21 -28 -28 -231 -107 -80 -31 -171 -68
-203 -82 -32 -14 -74 -26 -93 -28 -19 -1 -38 -6 -42 -10 -4 -5 1 -5 11 -2 9 4
17 3 17 -1 0 -9 -112 -68 -122 -65 -4 2 -5 -4 -1 -13 5 -12 15 -15 45 -11 32
4 40 2 49 -16 6 -12 23 -32 38 -45 109 -96 239 -233 301 -316 57 -77 79 -102
80 -89 0 14 51 43 75 43 30 0 14 -25 -30 -45 -42 -18 -44 -20 -30 -40 26 -35
62 -119 68 -156 5 -35 5 -35 -46 -50 l-52 -16 -5 -64 c-3 -35 -11 -74 -18 -87
-10 -18 -11 -26 -1 -38 10 -13 6 -18 -13 -15 -16 2 -7 -25 15 -44 18 -16 40
-21 114 -23 94 -4 122 -22 34 -22 -26 0 -69 -6 -94 -14 -44 -13 -47 -13 -47 4
0 32 -17 31 -24 -1 -13 -67 -13 -67 62 -63 l67 4 -57 -13 c-32 -7 -60 -16 -64
-19 -3 -4 -3 -24 1 -46 l6 -39 41 7 c41 8 78 3 78 -10 0 -4 -23 -10 -51 -12
-56 -6 -75 -18 -65 -44 6 -16 8 -16 26 1 10 9 24 14 29 10 12 -7 15 -95 4 -95
-13 0 -29 14 -39 32 -7 13 -9 8 -9 -22 0 -38 0 -38 30 -33 16 3 32 8 34 10 3
2 4 31 3 66 l-2 62 20 -35 c21 -38 26 -65 10 -55 -6 4 -10 -5 -10 -19 0 -18 5
-26 17 -26 28 0 4 -14 -28 -16 -76 -5 -80 -9 -73 -72 7 -69 36 -102 89 -102
27 0 43 -9 72 -39 21 -21 49 -44 63 -51 23 -13 40 -16 115 -22 17 -2 31 -7 32
-13 1 -5 -12 -9 -30 -7 l-32 2 29 -16 c22 -13 34 -14 53 -5 13 6 39 11 57 11
19 0 39 7 46 15 7 8 16 12 22 9 5 -3 17 3 26 13 9 11 25 22 35 26 10 4 15 11
12 17 -3 5 1 10 9 10 8 0 31 17 50 37 l36 38 -10 -34 c-14 -52 -53 -95 -114
-127 -30 -16 -53 -30 -52 -32 2 -1 27 6 55 18 38 15 76 20 144 21 51 0 110 4
132 9 32 8 23 9 -45 6 -47 -2 -96 0 -110 4 -14 5 -18 8 -10 9 8 1 20 9 27 20
8 12 33 23 77 31 36 7 71 18 77 26 6 8 21 14 33 14 17 0 18 2 6 10 -13 8 -13
10 1 10 21 0 46 29 55 63 3 16 33 69 65 118 l59 89 72 0 c40 0 83 3 96 6 21 6
22 4 16 -20 -4 -17 0 -35 11 -52 9 -14 14 -35 11 -46 -4 -18 -1 -17 25 8 29
28 37 58 19 69 -15 9 -12 42 4 48 8 3 47 9 87 13 41 3 80 11 87 17 34 27 8 30
-188 24 -110 -4 -200 -5 -200 -2 0 3 36 59 80 125 43 67 82 131 85 143 5 17 4
19 -4 7 -9 -12 -11 -11 -11 7 0 12 5 25 10 28 35 21 -26 126 -88 152 -20 8
-38 16 -40 18 -5 5 20 89 30 100 4 5 8 -1 8 -14 0 -13 11 -36 24 -52 l24 -28
13 32 c7 18 21 38 31 45 11 8 17 21 13 31 -3 11 5 25 26 40 24 18 28 25 19 36
-13 16 -5 35 13 35 7 0 18 9 25 21 16 25 4 44 -33 53 -17 4 -22 11 -18 22 4
11 0 15 -13 14 -38 -4 -54 0 -54 15 0 21 21 19 78 -10 57 -29 66 -30 80 -12
14 17 3 71 -12 58 -16 -13 -37 1 -27 17 6 10 13 11 34 1 37 -17 78 1 70 30 -4
14 1 23 13 27 35 13 55 36 43 50 -14 18 -1 37 22 31 10 -3 25 3 35 14 16 18
16 20 1 37 -25 27 -22 45 6 36 12 -3 27 -11 34 -16 8 -6 27 5 59 36 26 25 51
46 55 46 4 0 17 14 29 30 14 20 30 30 46 30 37 0 64 18 64 41 0 15 -5 19 -17
15 -10 -3 -36 6 -58 20 -26 17 -32 24 -17 21 13 -3 20 -1 16 5 -4 5 -20 7 -36
4 -20 -4 -27 -2 -22 5 4 8 -1 9 -17 4 -13 -4 -20 -4 -16 1 4 5 -20 18 -55 30
-291 101 -434 162 -417 178 7 8 590 -208 624 -230 27 -19 35 -17 35 6 0 48
-32 63 -489 232 -124 46 -226 89 -229 96 -8 26 14 19 558 -185 36 -13 79 -30
97 -38 41 -20 50 -19 56 4 5 20 -20 51 -41 51 -6 0 -15 6 -19 14 -4 7 -19 16
-33 18 -30 7 -285 97 -455 161 -76 29 -121 51 -123 61 -2 9 -1 16 3 16 3 0
139 -50 301 -110 279 -104 372 -143 384 -160 3 -4 15 -10 28 -14 18 -6 31 1
67 38 60 62 78 96 52 96 -7 0 -20 -15 -28 -32 -11 -26 -19 -32 -39 -30 -14 1
-32 10 -40 19 -14 14 -13 15 10 10 24 -6 24 -5 6 8 -11 8 -25 15 -30 15 -6 0
-4 5 4 10 12 8 10 10 -10 10 -15 0 -31 5 -37 11 -6 6 -35 13 -64 16 -30 3 -85
18 -124 33 -63 24 -297 106 -565 195 -79 27 -96 36 -98 55 -2 12 1 27 6 32 18
18 552 -182 897 -338 39 -17 87 -22 92 -8 2 6 -19 21 -46 34 -28 13 -48 27
-45 31 3 5 -2 6 -10 3 -8 -3 -23 -1 -33 6 -16 9 -15 10 7 5 19 -5 21 -4 10 4
-8 6 -26 7 -39 4 -15 -4 -22 -2 -17 5 4 6 -2 8 -14 5 -11 -3 -20 -1 -20 4 0 5
-10 9 -22 10 -11 1 -24 6 -27 12 -11 17 -123 62 -331 132 -181 61 -398 129
-413 129 -3 0 -13 -10 -21 -22z m-329 -78 c1 -11 -4 -20 -10 -20 -7 0 -13 9
-14 20 -1 11 4 20 10 20 7 0 13 -9 14 -20z m-104 -29 c-1 -33 -1 -33 35 -27
21 3 58 6 85 6 46 0 47 1 41 25 -6 23 -3 25 27 25 18 0 89 -19 156 -42 120
-42 149 -63 102 -75 -20 -6 -20 -6 3 -31 l23 -26 -29 18 c-120 75 -174 91
-316 91 -133 0 -194 -15 -284 -70 -32 -19 -60 -35 -62 -35 -6 0 -35 73 -30 77
16 16 215 103 231 101 16 -2 20 -10 18 -37z m254 -77 c34 -9 69 -24 79 -35 9
-10 22 -19 29 -19 16 0 73 -58 102 -103 13 -21 39 -54 57 -75 43 -47 65 -112
69 -203 5 -90 0 -116 -23 -122 -9 -2 -23 -18 -31 -35 -14 -32 -64 -66 -52 -37
3 8 10 15 15 15 5 0 8 6 5 13 -2 6 2 26 9 42 13 32 5 46 -26 53 -8 2 -21 10
-29 17 -12 12 -17 10 -33 -10 -11 -14 -23 -24 -28 -22 -4 1 -30 -22 -57 -51
-35 -39 -63 -58 -103 -72 -65 -24 -82 -24 -123 -6 -18 7 -57 19 -87 26 -61 14
-109 40 -146 79 -20 21 -24 33 -21 63 6 44 -8 58 -75 80 -54 17 -52 21 -38
-71 15 -88 53 -176 102 -234 23 -28 37 -48 32 -45 -5 2 -29 14 -54 25 -25 12
-53 35 -63 52 -10 17 -23 31 -29 31 -5 0 -8 7 -4 15 3 8 2 15 -2 15 -5 0 -17
24 -27 53 -27 74 -26 204 2 275 27 66 93 170 113 177 8 3 35 23 59 45 27 24
66 47 105 59 99 33 157 34 273 5z m-525 -1 c36 -42 25 -83 -22 -83 -55 0 -81
71 -32 88 37 14 37 14 54 -5z m852 1 c32 -31 7 -78 -38 -72 -38 4 -51 25 -37
61 12 31 50 37 75 11z m-984 -57 c0 -8 -30 -27 -67 -42 -38 -15 -86 -36 -108
-45 -181 -77 -405 -159 -421 -153 -12 4 -15 3 -10 -5 4 -7 1 -12 -7 -12 -8 0
-20 -7 -27 -16 -22 -26 -44 -33 -58 -18 -10 11 -3 18 40 41 48 25 633 261 651
262 4 1 7 -5 7 -12z m96 -109 c-14 -19 -37 -59 -50 -89 -14 -30 -25 -48 -25
-41 -1 16 56 131 77 155 26 30 25 10 -2 -25z m894 -19 c15 -28 5 -23 -15 7 -9
15 -12 23 -6 20 6 -4 16 -16 21 -27z m660 11 c8 -5 11 -10 5 -10 -5 0 -17 5
-25 10 -8 5 -10 10 -5 10 6 0 17 -5 25 -10z m60 -20 c18 -12 2 -12 -25 0 -13
6 -15 9 -5 9 8 0 22 -4 30 -9z m-1699 -195 c-8 -65 -8 -67 -10 -20 -1 47 8
100 15 93 1 -2 -1 -35 -5 -73z m-54 13 c-3 -8 -6 -5 -6 6 -1 11 2 17 5 13 3
-3 4 -12 1 -19z m1224 -8 c26 -15 24 -30 -5 -30 -25 0 -51 22 -39 33 9 10 21
9 44 -3z m-1261 -20 c0 -14 -49 -32 -62 -24 -7 5 -4 12 7 21 22 15 55 17 55 3z
m1353 -20 c3 -11 2 -18 -3 -15 -4 3 -31 -36 -60 -85 -29 -50 -56 -90 -61 -90
-19 0 -18 21 2 41 11 11 36 54 55 95 33 74 57 92 67 54z m-1431 -35 c30 -58
30 -58 66 -105 22 -29 29 -47 22 -54 -5 -5 -11 -8 -14 -5 -15 16 -126 193
-126 201 0 23 33 0 52 -37z m1554 -9 c89 -30 164 -67 158 -78 -3 -4 1 -6 8 -3
7 3 20 0 28 -5 13 -8 13 -11 -2 -26 -16 -16 -19 -15 -48 10 -17 14 -39 26 -48
27 -10 1 -7 4 8 9 24 8 23 8 -8 9 -39 1 -192 58 -192 72 0 14 21 11 96 -15z
m-1641 4 c8 -13 -96 -60 -131 -60 -14 0 -23 -3 -21 -7 3 -5 -12 -8 -34 -8 -21
-1 -37 0 -35 2 4 5 199 82 208 82 4 1 10 -4 13 -9z m252 -22 c-3 -8 -6 -5 -6
6 -1 11 2 17 5 13 3 -3 4 -12 1 -19z m1133 7 c0 -8 -7 -15 -15 -15 -8 0 -15 7
-15 15 0 8 7 15 15 15 8 0 15 -7 15 -15z m-1190 -16 c0 -5 -7 -9 -15 -9 -15 0
-20 12 -9 23 8 8 24 -1 24 -14z m1392 -53 c49 -14 178 -77 178 -86 0 -3 -4
-11 -9 -19 -7 -11 -16 -9 -50 11 -31 19 -38 27 -29 36 9 9 4 12 -21 12 -44 0
-131 31 -131 47 0 16 6 16 62 -1z m-1798 -17 c-7 -11 -44 -12 -44 -1 0 15 11
20 30 15 11 -3 17 -9 14 -14z m243 6 c4 -13 -104 -55 -141 -55 -21 0 -27 -4
-22 -15 3 -10 -3 -17 -22 -22 -15 -3 -33 -15 -40 -25 -11 -15 -17 -16 -28 -7
-8 6 -14 15 -14 20 0 7 173 95 220 112 21 8 43 4 47 -8z m-312 -29 c12 -12 12
-16 0 -26 -12 -10 -15 -9 -15 4 0 9 -5 16 -11 16 -5 0 -7 5 -4 10 8 13 14 13
30 -4z m1495 -10 c0 -8 -20 -41 -45 -75 -36 -49 -50 -61 -72 -61 -21 0 -24 -3
-14 -9 12 -8 9 -11 -12 -16 -15 -4 -27 -11 -27 -15 0 -4 -39 -21 -87 -36 -75
-25 -103 -29 -184 -27 -59 0 -107 6 -122 15 -23 11 -8 13 116 11 129 -2 147 0
192 21 28 12 72 44 98 70 35 33 54 45 67 41 14 -4 25 4 44 32 14 21 26 43 26
50 0 7 5 13 10 13 6 0 10 -6 10 -14z m-906 -42 c3 -8 2 -12 -4 -9 -6 3 -10 10
-10 16 0 14 7 11 14 -7z m1247 4 c46 -13 51 -28 10 -28 -37 0 -81 16 -81 30 0
13 24 13 71 -2z m-1481 -8 c0 -14 -67 -40 -101 -40 -42 0 -35 16 14 33 50 18
87 21 87 7z m154 -22 c8 -18 23 -45 33 -60 12 -20 14 -31 6 -39 -7 -7 -22 7
-52 51 -22 34 -41 64 -41 65 0 2 8 6 18 8 9 3 18 5 19 6 2 0 9 -14 17 -31z
m1160 24 c5 -9 -56 -106 -74 -117 -27 -17 -27 11 0 66 21 41 36 59 50 59 10 0
21 -4 24 -8z m-1214 -35 c0 -8 14 -33 30 -55 34 -47 36 -57 16 -65 -9 -4 -16
3 -20 17 -3 12 -17 39 -31 60 -24 35 -26 56 -4 56 5 0 9 -6 9 -13z m-230 -22
c11 -13 8 -15 -21 -15 -32 1 -33 1 -15 15 24 18 21 18 36 0z m1425 -32 c-4
-10 -7 -28 -6 -40 0 -16 -4 -21 -14 -17 -18 7 -18 8 0 44 17 32 32 42 20 13z
m139 11 c22 -9 10 -24 -20 -24 -15 0 -24 6 -24 15 0 16 17 19 44 9z m-1639
-14 c3 -5 3 -15 -1 -21 -6 -11 -23 6 -24 24 0 10 18 9 25 -3z m230 0 c9 -15
-41 -31 -67 -21 l-23 9 25 10 c33 14 57 14 65 2z m220 -92 c10 -18 45 -73 77
-121 68 -104 72 -119 26 -110 -37 6 -57 26 -94 93 -14 25 -36 63 -49 85 -47
77 -23 71 30 -8 45 -67 45 -55 1 19 -32 53 -37 74 -18 74 4 0 16 -15 27 -32z
m972 -2 c-1 -19 -4 -32 -6 -30 -2 2 -12 -6 -23 -18 -14 -17 -15 -23 -6 -29 10
-6 6 -22 -17 -64 -32 -59 -65 -98 -52 -60 7 19 6 19 -7 3 -13 -18 -46 -25 -46
-10 0 4 21 43 48 87 26 45 56 97 66 118 24 47 45 49 43 3z m172 25 c12 -8 9
-11 -12 -17 -30 -7 -43 -1 -32 15 8 13 25 14 44 2z m-1322 -18 c5 -15 -17 -21
-47 -13 l-25 7 25 11 c28 12 42 11 47 -5z m-192 -3 c-3 -5 -11 -10 -16 -10 -6
0 -7 5 -4 10 3 6 11 10 16 10 6 0 7 -4 4 -10z m1447 -78 c-39 -4 -47 1 -38 23
5 14 9 14 38 -2 l33 -18 -33 -3z m-1384 12 c-9 -9 -21 -13 -27 -9 -16 10 -3
25 22 25 20 0 20 -1 5 -16z m195 -8 c7 -17 -16 -24 -52 -17 l-24 4 24 13 c31
17 46 17 52 0z m871 -59 c-25 -56 -52 -79 -40 -34 3 12 6 27 6 34 0 12 51 65
57 59 2 -2 -8 -28 -23 -59z m-543 -19 c16 -31 17 -38 5 -38 -14 0 -56 79 -56
104 1 14 27 -19 51 -66z m216 56 c-3 -3 -12 -4 -19 -1 -8 3 -5 6 6 6 11 1 17
-2 13 -5z m-677 -43 c0 -5 -7 -14 -15 -21 -8 -7 -15 -10 -15 -7 0 3 -3 12 -6
21 -4 12 0 16 15 16 12 0 21 -4 21 -9z m180 -16 c0 -8 -9 -15 -19 -15 -11 0
-26 -3 -35 -6 -25 -9 -19 12 7 24 31 15 47 14 47 -3z m1075 -75 l30 -19 -45 5
c-50 6 -55 8 -45 23 9 16 26 13 60 -9z m-1025 -4 c0 -8 -16 -16 -41 -20 -25
-4 -39 -11 -36 -19 2 -6 -14 -20 -36 -29 -45 -20 -50 -22 -43 -9 4 5 0 11 -6
14 -13 5 126 76 150 77 6 0 12 -6 12 -14z m330 -36 c23 -45 24 -50 9 -50 -5 0
-17 16 -25 35 -26 64 -15 76 16 15z m360 38 c0 -2 -7 -21 -14 -43 -13 -38 -36
-60 -36 -34 0 26 25 79 37 79 7 0 13 -1 13 -2z m132 -16 c34 -16 36 -20 24
-38 -7 -10 -17 -34 -21 -51 -8 -40 -25 -43 -25 -5 l0 27 -25 -30 c-13 -16 -24
-32 -25 -36 0 -3 23 -13 51 -23 53 -19 66 -35 52 -60 -7 -12 -16 -11 -60 10
-29 13 -82 31 -118 40 -67 17 -71 20 -56 43 9 13 47 11 106 -6 18 -5 18 -3 -4
20 -21 23 -22 29 -11 64 21 65 48 75 112 45z m-575 0 c6 -4 21 -29 33 -56 17
-40 18 -51 8 -64 -11 -13 -10 -15 12 -9 14 4 35 10 47 13 15 4 25 0 33 -15 8
-16 8 -21 -2 -21 -7 0 -57 -19 -110 -41 -53 -23 -104 -39 -112 -36 -33 13 -16
38 41 63 l58 26 -26 13 c-16 9 -30 29 -38 55 -7 23 -15 40 -18 37 -3 -3 2 -26
10 -51 9 -26 12 -46 7 -46 -5 0 -11 9 -15 19 -3 11 -17 35 -30 54 l-23 36 36
15 c41 17 71 20 89 8z m-119 -91 c20 -58 20 -59 1 -64 -15 -4 -23 5 -39 40
-23 53 -25 69 -7 76 23 10 25 7 45 -52z m780 37 c2 -9 -4 -23 -13 -31 -8 -9
-15 -20 -15 -25 0 -5 -7 -15 -15 -22 -19 -16 -19 -5 1 54 16 45 36 57 42 24z
m92 -22 c0 -2 -9 -2 -20 1 -11 3 -20 9 -20 15 0 5 9 4 20 -2 11 -6 20 -12 20
-14z m-992 -3 c-2 -10 -11 -17 -19 -15 -9 1 -29 -5 -45 -13 -16 -8 -36 -15
-44 -15 -14 1 85 57 103 59 5 1 7 -7 5 -16z m432 -34 c0 -11 -4 -17 -10 -14
-5 3 -10 15 -10 26 0 11 5 17 10 14 6 -3 10 -15 10 -26z m111 3 c-7 -14 -17
-18 -31 -15 -26 7 -25 10 8 27 32 17 37 14 23 -12z m-16 -54 c14 -6 25 -15 25
-20 0 -5 12 -13 28 -19 47 -19 224 -67 287 -78 78 -14 107 -37 121 -92 9 -36
8 -50 -4 -74 -13 -27 -126 -191 -152 -222 -5 -7 -10 -15 -10 -18 0 -3 -5 -11
-11 -18 -5 -7 -37 -54 -70 -105 -52 -82 -61 -91 -78 -82 -52 27 -121 -8 -121
-62 0 -32 28 -88 45 -88 29 -1 -30 -20 -79 -26 l-56 -7 15 36 c8 19 16 68 17
109 2 40 8 76 13 80 6 4 25 8 43 8 89 0 215 103 240 193 19 72 15 116 -17 182
-54 114 -142 169 -271 169 -56 1 -87 -5 -121 -20 -43 -20 -122 -88 -144 -126
-7 -12 -19 -15 -42 -11 -28 4 -33 9 -33 33 0 15 -7 47 -15 70 -19 55 -19 60 4
60 23 0 271 89 290 104 11 8 42 25 68 35 1 1 14 -4 28 -11z m-545 -48 c0 -5
-10 -10 -22 -10 -19 0 -20 2 -8 10 19 13 30 13 30 0z m80 -44 c0 -18 -22 -34
-27 -19 -2 5 -15 8 -28 5 -24 -4 -33 7 -18 21 13 14 73 7 73 -7z m-181 -15
c10 -7 12 -23 6 -69 -4 -39 -3 -62 4 -66 6 -4 11 -24 11 -44 0 -29 -3 -34 -11
-22 -9 12 -10 11 -6 -7 4 -19 1 -23 -18 -23 -18 0 -22 4 -18 19 3 11 0 28 -6
38 -9 16 -11 14 -12 -12 -1 -17 -3 -23 -6 -12 -2 9 -11 17 -18 17 -9 0 -15 22
-20 75 -8 81 -1 100 38 108 37 7 42 7 56 -2z m190 -31 c4 0 8 -7 8 -15 0 -11
-13 -14 -54 -14 -36 1 -53 5 -50 13 4 12 54 26 75 20 8 -2 17 -4 21 -4z m566
-51 c125 -64 159 -233 67 -339 -97 -114 -274 -120 -381 -12 -45 45 -71 101
-71 151 0 84 60 178 134 212 62 28 185 22 251 -12z m-628 -41 c-3 -7 -5 -2 -5
12 0 14 2 19 5 13 2 -7 2 -19 0 -25z m53 7 c0 -14 -4 -25 -10 -25 -5 0 -10 11
-10 25 0 14 5 25 10 25 6 0 10 -11 10 -25z m24 -53 c10 -17 -12 -35 -38 -30
-14 3 -26 1 -26 -3 0 -5 -11 -9 -24 -9 -29 0 -29 30 0 41 26 10 82 11 88 1z
m111 -52 c3 -5 -1 -10 -9 -10 -24 0 -29 -20 -10 -41 19 -21 13 -24 -17 -9 -24
13 -25 46 -1 59 22 13 29 13 37 1z m-95 -105 c19 -23 4 -134 -23 -163 -19 -21
-20 -26 -8 -73 7 -27 12 -52 10 -53 -2 -2 -39 -6 -81 -9 -53 -4 -80 -2 -86 6
-11 13 -32 181 -32 250 0 54 0 54 121 56 66 1 90 -3 99 -14z m116 -50 c8 -46
54 -108 104 -141 40 -26 40 -27 40 -90 0 -63 0 -64 -35 -78 -19 -9 -39 -24
-43 -35 -6 -18 -9 -18 -32 -6 -19 11 -21 14 -7 15 27 0 22 56 -8 85 -13 14
-30 25 -37 25 -6 0 2 15 19 33 29 30 30 34 20 67 -8 24 -22 40 -44 50 -30 14
-33 19 -33 62 0 36 4 47 18 51 25 5 31 0 38 -38z m-396 -20 c0 -14 -4 -25 -10
-25 -5 0 -10 11 -10 25 0 14 5 25 10 25 6 0 10 -11 10 -25z m-30 0 c0 -12 -28
-35 -44 -35 -3 0 -6 11 -6 25 0 20 5 25 25 25 15 0 25 -6 25 -15z m47 -7 c-3
-8 -6 -5 -6 6 -1 11 2 17 5 13 3 -3 4 -12 1 -19z m347 -84 c23 -9 20 -51 -4
-59 -38 -12 -79 33 -53 58 8 9 36 9 57 1z m245 -83 c16 -10 17 -94 2 -135 l-8
-21 -7 23 c-9 26 -13 142 -6 142 3 0 12 -4 19 -9z m-284 -41 c-3 -5 -11 -10
-16 -10 -6 0 -7 5 -4 10 3 6 11 10 16 10 6 0 7 -4 4 -10z m65 -35 c17 -20 9
-49 -15 -53 -20 -4 -20 -4 0 11 15 12 17 18 8 28 -20 20 -46 2 -40 -27 4 -23
3 -24 -11 -10 -13 12 -13 20 -4 41 13 28 43 33 62 10z m-350 -31 c14 0 28 5
33 10 5 7 12 5 21 -7 9 -12 16 -14 21 -8 8 13 124 14 145 1 8 -5 12 -12 9 -15
-4 -3 -66 -8 -140 -11 -125 -5 -161 -11 -131 -21 6 -3 12 -16 12 -29 0 -19 -5
-24 -25 -24 -24 0 -25 3 -25 55 0 41 4 56 18 64 12 7 20 6 27 -2 6 -7 21 -13
35 -13z m788 14 c7 -7 12 -19 12 -27 0 -12 -3 -11 -13 3 -14 20 -54 18 -49 -2
1 -7 -2 -12 -8 -12 -17 0 -11 28 8 39 23 14 36 13 50 -1z m-264 -54 c17 -7 22
-44 6 -44 -5 0 -10 6 -10 14 0 24 -20 29 -41 10 -16 -14 -19 -14 -19 -2 0 27
27 36 64 22z m-270 -13 c3 -5 -25 -12 -62 -17 -96 -12 -106 -11 -110 9 -3 15
6 17 82 17 47 0 87 -4 90 -9z m523 3 c-3 -3 -12 -4 -19 -1 -8 3 -5 6 6 6 11 1
17 -2 13 -5z m-767 -14 c0 -5 -4 -10 -10 -10 -5 0 -10 5 -10 10 0 6 5 10 10
10 6 0 10 -4 10 -10z m46 -6 c-3 -9 -6 -20 -6 -25 0 -5 -4 -9 -10 -9 -5 0 -10
11 -10 25 0 16 6 25 16 25 11 0 14 -5 10 -16z m521 -6 c-3 -8 -6 -5 -6 6 -1
11 2 17 5 13 3 -3 4 -12 1 -19z m-64 -35 c-7 -2 -19 -2 -25 0 -7 3 -2 5 12 5
14 0 19 -2 13 -5z m-145 -51 c4 -25 -13 -52 -32 -52 -7 0 -21 6 -31 14 -17 12
-18 17 -7 41 16 35 65 33 70 -3z"/>
<path d="M1359 2246 c-25 -14 -52 -32 -60 -42 -10 -13 -10 -16 -1 -10 10 6 11
4 4 -10 -73 -145 -76 -161 -36 -193 15 -12 33 -21 41 -21 9 0 32 -13 53 -30
69 -55 121 -63 184 -29 22 11 55 22 74 24 19 2 41 10 49 18 20 19 29 122 13
142 -7 8 -10 21 -7 29 8 21 -32 76 -81 110 -37 26 -54 31 -115 33 -60 3 -79
-1 -118 -21z m126 -84 c-3 -3 -11 0 -18 7 -9 10 -8 11 6 5 10 -3 15 -9 12 -12z
m73 -17 c12 -3 22 -11 22 -16 0 -6 -7 -6 -17 0 -10 5 -29 14 -43 20 -25 11 -9
10 38 -4z m-133 -4 c-13 -11 -91 -23 -79 -11 5 4 20 10 34 13 44 8 54 7 45 -2z
m229 -76 c7 -37 2 -55 -15 -55 -6 0 -8 4 -4 9 3 5 -2 16 -10 24 -19 20 -19 27
1 27 10 0 14 6 10 15 -3 8 -2 15 3 15 5 0 12 -16 15 -35z m-359 -10 c-1 -50
-15 -56 -15 -7 0 23 4 42 8 42 5 0 8 -16 7 -35z m238 28 c-7 -2 -19 -2 -25 0
-7 3 -2 5 12 5 14 0 19 -2 13 -5z m-176 -35 c-3 -8 -6 -5 -6 6 -1 11 2 17 5
13 3 -3 4 -12 1 -19z m180 -10 c-3 -7 -5 -2 -5 12 0 14 2 19 5 13 2 -7 2 -19
0 -25z m-197 7 c0 -8 -4 -15 -10 -15 -5 0 -10 7 -10 15 0 8 5 15 10 15 6 0 10
-7 10 -15z m37 -17 c-3 -7 -5 -2 -5 12 0 14 2 19 5 13 2 -7 2 -19 0 -25z m20
10 c-3 -8 -6 -5 -6 6 -1 11 2 17 5 13 3 -3 4 -12 1 -19z m73 13 c0 -6 -4 -13
-10 -16 -5 -3 -10 1 -10 9 0 9 5 16 10 16 6 0 10 -4 10 -9z m48 -10 c3 -8 -1
-12 -9 -9 -7 2 -15 10 -17 17 -3 8 1 12 9 9 7 -2 15 -10 17 -17z m-155 -38
c-13 -2 -33 -2 -45 0 -13 2 -3 4 22 4 25 0 35 -2 23 -4z m105 0 c-16 -2 -40
-2 -55 0 -16 2 -3 4 27 4 30 0 43 -2 28 -4z m185 -34 c-9 -9 -12 -7 -10 9 1
14 5 18 11 12 7 -7 6 -14 -1 -21z m-210 -35 c23 -5 27 -3 28 17 l0 24 9 -22
c12 -30 34 -30 24 -1 -6 21 -6 21 11 4 15 -15 16 -19 4 -27 -34 -23 -139 10
-139 44 0 5 8 0 18 -11 9 -12 29 -24 45 -28z"/>
<path d="M1000 2411 c0 -23 28 -35 46 -20 19 15 6 39 -22 39 -17 0 -24 -6 -24
-19z"/>
<path d="M1844 2425 c-4 -9 -2 -21 4 -27 16 -16 47 -5 47 17 0 26 -42 34 -51
10z"/>
<path d="M1150 1170 c0 -5 5 -10 11 -10 5 0 7 5 4 10 -3 6 -8 10 -11 10 -2 0
-4 -4 -4 -10z"/>
<path d="M1835 1018 c-43 -24 -47 -67 -10 -103 46 -47 118 -23 131 41 11 59
-62 96 -121 62z m83 -20 c7 -7 12 -21 12 -31 0 -17 -2 -17 -19 4 -15 18 -22
21 -31 12 -14 -13 -5 -33 16 -33 8 0 14 -4 14 -10 0 -13 -16 -13 -41 0 -33 18
-18 70 21 70 9 0 21 -5 28 -12z m-18 -28 c0 -5 -4 -10 -10 -10 -5 0 -10 5 -10
10 0 6 5 10 10 10 6 0 10 -4 10 -10z"/>
<path d="M871 944 c0 -11 3 -14 6 -6 3 7 2 16 -1 19 -3 4 -6 -2 -5 -13z"/>
<path d="M1389 1012 c-34 -17 -65 -44 -84 -71 -26 -37 -30 -51 -30 -110 0 -59
4 -73 30 -111 36 -52 128 -100 192 -100 150 0 267 165 204 289 -61 118 -197
163 -312 103z m116 -13 c12 -19 -5 -23 -22 -6 -16 16 -16 17 -1 17 9 0 20 -5
23 -11z m-109 -22 c-68 -38 -105 -134 -78 -199 21 -51 48 -23 36 37 -14 76 51
145 136 145 83 0 142 -55 142 -134 0 -53 -22 -89 -67 -110 -63 -30 -122 -19
-177 32 -16 14 -28 21 -28 14 0 -14 67 -82 80 -82 6 0 10 -7 10 -15 0 -35 -82
0 -122 52 -34 43 -45 111 -28 166 14 49 80 117 113 117 18 0 15 -4 -17 -23z
m184 13 c18 -12 2 -12 -25 0 -13 6 -15 9 -5 9 8 0 22 -4 30 -9z m82 -67 c46
-69 45 -146 -4 -216 -19 -26 -75 -57 -104 -57 -28 0 -13 30 26 55 22 14 40 30
40 36 0 6 6 9 14 6 48 -19 54 144 7 183 -3 3 -15 16 -26 29 l-20 24 21 -11
c11 -6 32 -28 46 -49z m-142 -254 c0 -12 -29 -24 -37 -16 -3 4 -3 13 0 21 6
16 37 11 37 -5z"/>
<path d="M1465 943 c-53 -14 -95 -66 -95 -119 0 -38 68 -104 106 -103 l29 0
-25 10 c-70 28 -97 88 -65 148 21 41 72 54 116 31 25 -14 24 -30 -1 -30 -11 0
-20 -5 -20 -10 0 -6 8 -10 18 -8 11 2 16 -3 14 -14 -2 -11 3 -18 13 -18 8 0
15 7 15 16 0 8 5 12 10 9 18 -11 11 -70 -10 -93 -12 -12 -17 -22 -12 -22 18 0
53 49 58 82 11 66 -80 138 -151 121z"/>
<path d="M1442 872 c2 -4 11 -28 22 -54 18 -47 36 -55 36 -17 0 11 -4 18 -9
14 -6 -3 -13 10 -17 30 -4 21 -12 35 -21 35 -8 0 -13 -3 -11 -8z"/>
<path d="M1515 730 c-3 -5 -2 -10 4 -10 5 0 13 5 16 10 3 6 2 10 -4 10 -5 0
-13 -4 -16 -10z"/>
<path d="M1137 614 c-16 -16 -6 -34 19 -34 19 0 25 5 22 17 -3 19 -29 29 -41
17z"/>
<path d="M1166 274 c-4 -10 -2 -22 3 -27 14 -14 43 0 39 20 -4 24 -34 28 -42
7z"/>
<path d="M2222 2651 c-11 -7 -11 -9 1 -14 9 -3 21 1 27 9 10 11 10 14 -1 14
-8 0 -20 -4 -27 -9z"/>
<path d="M626 2635 c4 -8 12 -15 20 -15 19 0 18 16 -2 24 -22 9 -24 8 -18 -9z"/>
<path d="M2436 2574 c-4 -10 -1 -14 6 -12 15 5 23 28 10 28 -5 0 -13 -7 -16
-16z"/>
<path d="M430 2556 c0 -22 3 -27 11 -19 8 8 8 16 0 30 -9 16 -10 14 -11 -11z"/>
<path d="M2505 2549 c-4 -6 -5 -13 -2 -16 7 -7 27 6 27 18 0 12 -17 12 -25 -2z"/>
<path d="M374 2531 c20 -22 26 -25 26 -13 0 4 -10 13 -22 21 -23 14 -23 14 -4
-8z"/>
<path d="M66 2238 c-9 -36 -7 -48 8 -48 18 0 29 31 20 54 -9 23 -21 20 -28 -6z"/>
<path d="M2070 570 c0 -11 5 -20 11 -20 6 0 8 7 5 16 -4 12 -2 15 9 10 8 -3
15 -1 15 4 0 6 -9 10 -20 10 -13 0 -20 -7 -20 -20z"/>
<path d="M1814 533 c-16 -17 -16 -18 -1 -21 9 -2 17 -9 17 -15 0 -19 20 16 20
36 0 9 -4 17 -9 17 -5 0 -17 -8 -27 -17z"/>
<path d="M1764 420 c0 -11 5 -19 11 -17 5 2 10 10 10 17 0 7 -5 15 -10 17 -6
2 -11 -6 -11 -17z"/>
<path d="M1726 414 c-9 -24 -2 -26 12 -4 7 11 8 20 3 20 -5 0 -12 -7 -15 -16z"/>
<path d="M1792 334 c-12 -8 -22 -21 -22 -27 0 -7 -6 -24 -14 -39 -12 -23 -12
-27 1 -32 32 -13 42 -6 45 32 3 35 5 37 37 38 43 0 50 17 16 32 -33 15 -36 15
-63 -4z"/>
<path d="M1598 213 c12 -2 30 -2 40 0 9 3 -1 5 -23 4 -22 0 -30 -2 -17 -4z"/>
</g>
</svg>
